<?xml version="1.0" standalone="no"?>
<!DOCTYPE svg PUBLIC "-//W3C//DTD SVG 20010904//EN"
 "http://www.w3.org/TR/2001/REC-SVG-20010904/DTD/svg10.dtd">
<svg version="1.0" xmlns="http://www.w3.org/2000/svg"
 width="747.000000pt" height="278.000000pt" viewBox="0 0 747.000000 278.000000"
 preserveAspectRatio="xMidYMid meet">

<g transform="translate(0.000000,278.000000) scale(0.100000,-0.100000)"
fill="#000000" stroke="none">
<path d="M2978 2474 l-608 -304 0 -690 c0 -672 1 -692 21 -752 11 -34 33 -80
49 -102 64 -94 99 -116 612 -373 l493 -248 115 0 c92 0 130 5 190 24 83 26
1245 621 1320 676 91 67 166 165 203 263 18 47 22 79 22 183 l0 126 -40 79
c-29 57 -54 89 -90 119 l-50 40 13 50 c21 80 11 201 -21 268 -39 79 -90 119
-254 200 l-146 72 -93 0 -93 0 -528 -265 -528 -265 -3 -617 c-2 -606 -3 -618
-22 -628 -17 -9 -83 22 -427 197 -344 175 -411 213 -430 242 l-23 34 0 606 0
606 590 295 c341 170 592 302 595 311 3 9 3 23 0 30 -6 15 -226 129 -248 128
-6 0 -285 -137 -619 -305z m682 187 l55 -29 -547 -273 -546 -273 -52 24 c-28
13 -53 28 -56 32 -5 7 1061 547 1081 547 6 0 35 -13 65 -28z m-1140 -621 l60
-30 0 -608 0 -608 26 -53 c19 -38 40 -62 73 -83 76 -49 820 -418 842 -418 36
0 89 31 104 61 13 24 15 119 15 603 l0 576 65 -32 65 -33 -2 -617 c-3 -605 -3
-617 -24 -644 -32 -44 -68 -66 -116 -71 -41 -5 -72 9 -537 241 -541 271 -556
281 -609 394 l-27 57 -3 648 c-1 356 0 647 3 647 3 0 32 -14 65 -30z m2279
-21 c17 -6 31 -14 30 -17 0 -4 -230 -121 -510 -260 l-509 -252 -58 29 -57 29
483 241 c448 224 487 241 536 241 29 0 67 -5 85 -11z m202 -104 c58 -21 124
-87 144 -144 20 -60 18 -144 -5 -211 -27 -77 -25 -85 23 -113 58 -35 102 -83
129 -142 20 -43 23 -66 23 -160 0 -103 -2 -114 -32 -178 -34 -71 -111 -161
-178 -207 -63 -43 -1227 -642 -1273 -655 l-23 -7 18 34 c17 31 18 75 21 658
l3 626 515 257 c553 276 546 273 635 242z"/>
<path d="M465 1943 c-112 -23 -241 -98 -316 -181 -225 -252 -169 -661 114
-840 101 -63 167 -84 287 -89 128 -6 212 11 312 64 117 61 151 108 114 158
-21 29 -66 23 -117 -16 -272 -208 -663 -53 -720 284 -31 184 74 385 243 465
153 73 298 64 453 -29 61 -37 69 -40 96 -29 39 16 48 53 22 88 -28 37 -146 99
-225 117 -61 14 -215 19 -263 8z"/>
<path d="M6822 1938 c-17 -17 -17 -1079 0 -1096 9 -9 92 -12 313 -12 280 0
303 1 318 18 21 23 22 52 3 78 -13 18 -30 19 -270 22 l-256 3 2 192 3 192 235
5 234 5 15 27 c14 25 14 29 -5 55 l-21 28 -232 3 -231 2 0 185 0 184 256 3
c240 3 257 4 270 22 19 27 18 60 -4 79 -16 15 -53 17 -318 17 -220 0 -303 -3
-312 -12z"/>
</g>
</svg>
