<?xml version="1.0" encoding="UTF-8" standalone="no"?>
<svg
   xmlns:dc="http://purl.org/dc/elements/1.1/"
   xmlns:cc="http://creativecommons.org/ns#"
   xmlns:rdf="http://www.w3.org/1999/02/22-rdf-syntax-ns#"
   xmlns:svg="http://www.w3.org/2000/svg"
   xmlns="http://www.w3.org/2000/svg"
   xmlns:sodipodi="http://sodipodi.sourceforge.net/DTD/sodipodi-0.dtd"
   xmlns:inkscape="http://www.inkscape.org/namespaces/inkscape"
   version="1.1"
   id="svg2"
   xml:space="preserve"
   width="296.10666"
   height="180.13333"
   viewBox="0 0 296.10666 180.13333"
   sodipodi:docname="B_cube_Logo_RGB.eps"><metadata
     id="metadata8"><rdf:RDF><cc:Work
         rdf:about=""><dc:format>image/svg+xml</dc:format><dc:type
           rdf:resource="http://purl.org/dc/dcmitype/StillImage" /></cc:Work></rdf:RDF></metadata><defs
     id="defs6" /><sodipodi:namedview
     pagecolor="#ffffff"
     bordercolor="#666666"
     borderopacity="1"
     objecttolerance="10"
     gridtolerance="10"
     guidetolerance="10"
     inkscape:pageopacity="0"
     inkscape:pageshadow="2"
     inkscape:window-width="640"
     inkscape:window-height="480"
     id="namedview4" /><g
     id="g10"
     inkscape:groupmode="layer"
     inkscape:label="ink_ext_XXXXXX"
     transform="matrix(1.3333333,0,0,-1.3333333,0,180.13333)"><g
       id="g12"
       transform="scale(0.1)"><path
         d="m 1408.88,1143.81 c 0.29,0.1 0.58,0.29 0.78,0.39 9.28,3.96 18.77,5.61 27.96,5.32 9.58,-0.19 18.88,-2.42 27.4,-6.39 1.26,-0.48 2.42,-1.06 3.58,-1.74 20.62,-11.23 35.42,-32.91 35.42,-59.52 v -10.55 c 0,-14.14 -3.58,-27.78 -10.26,-39.68 0,0 51.24,-17.13 51.24,-86.898 0,-26.715 -8.6,-48.406 -19.86,-65.367 -21.38,-32.191 -52.38,-47.312 -52.38,-47.312 L 1191.6,686.789 c -21.49,-10.742 -45.2,-16.359 -69.3,-16.359 h -11.9 c 17.61,0 34.06,9.777 42.49,25.07 3.87,6.867 5.99,14.809 5.99,23.422 v 299.938 l 247.09,123.59 c 0.97,0.49 1.95,0.97 2.91,1.36"
         style="fill:none;stroke:#171717;stroke-width:20;stroke-linecap:butt;stroke-linejoin:round;stroke-miterlimit:10;stroke-dasharray:none;stroke-opacity:1"
         id="path14" /><path
         d="m 1107.01,1044.8 h -0.1"
         style="fill:none;stroke:#171717;stroke-width:20;stroke-linecap:butt;stroke-linejoin:round;stroke-miterlimit:10;stroke-dasharray:none;stroke-opacity:1"
         id="path16" /><path
         d="M 1158.88,1018.86 V 718.922 c 0,-8.613 -2.12,-16.555 -5.99,-23.422 -8.43,-15.293 -24.88,-25.07 -42.49,-25.07 -1.16,0 -2.23,0 -3.39,0.195 -6.09,0.387 -12.2,1.934 -18.19,4.938 l -174.511,87.3 -50.329,25.164 c -0.484,0.289 -0.964,0.485 -1.453,0.774 -15.582,8.129 -28.261,20.035 -37.261,34.359 -9.481,15.098 -14.809,32.906 -14.809,51.488 v 318.422 l 51.977,-25.93 v -0.1 l 0.093,-244.481 v -51.004 c 0,-9.391 2.711,-18.391 7.547,-26.035 4.551,-7.262 11.133,-13.165 18.977,-17.133 l 25.16,-12.676 -0.867,-0.488 0.965,-0.485 v 0.871 L 1078.94,732.57 c 12.87,-6.484 28.07,2.899 28.07,17.325 V 1044.8 Z"
         style="fill:none;stroke:#171717;stroke-width:20;stroke-linecap:butt;stroke-linejoin:round;stroke-miterlimit:10;stroke-dasharray:none;stroke-opacity:1"
         id="path18" /><path
         d="m 1158.88,1018.86 -51.87,25.94 247.09,123.5 2.42,1.15 c 3.39,1.56 6.88,2.81 10.35,3.69 1.46,0.48 3.01,0.77 4.46,1.06 1.65,0.29 3.29,0.58 4.94,0.77 0.19,0.1 0.38,0.1 0.57,0.1 2.52,0.29 5.04,0.48 7.55,0.48 1.85,0 3.59,0 5.32,-0.19 2.23,-0.19 4.46,-0.48 6.68,-0.87 1.65,-0.29 3.29,-0.68 4.85,-1.17 1.26,-0.28 2.51,-0.67 3.77,-1.06 1.16,-0.38 2.32,-0.77 3.48,-1.16 1.46,-0.58 2.81,-1.16 4.26,-1.83 1.26,-0.59 2.52,-1.17 3.68,-1.85 l 19.84,-9.87 0.39,-0.19 28.36,-14.23 c -8.52,3.97 -17.82,6.2 -27.4,6.39 -9.19,0.29 -18.68,-1.36 -27.96,-5.32 -0.2,-0.1 -0.49,-0.29 -0.78,-0.39 z"
         style="fill:none;stroke:#171717;stroke-width:20;stroke-linecap:butt;stroke-linejoin:round;stroke-miterlimit:10;stroke-dasharray:none;stroke-opacity:1"
         id="path20" /><path
         d="m 1107.01,1044.8 h -0.1"
         style="fill:none;stroke:#171717;stroke-width:20;stroke-linecap:butt;stroke-linejoin:round;stroke-miterlimit:10;stroke-dasharray:none;stroke-opacity:1"
         id="path22" /><path
         d="m 1106.36,1340.96 -295.864,-147.89 51.973,-25.93 h 0.097 l 295.774,147.88 z"
         style="fill:none;stroke:#171717;stroke-width:20;stroke-linecap:butt;stroke-linejoin:round;stroke-miterlimit:10;stroke-dasharray:none;stroke-opacity:1"
         id="path24" /><path
         d="M 72.6055,19.2109 C 50.0664,32.0117 32.3359,49.4102 19.4023,71.4102 6.46875,93.4102 0.00390625,117.609 0.00390625,144.012 c 0,26.129 6.46484375,50.129 19.39839375,72 12.9336,21.859 30.6641,39.199 53.2032,52 22.5273,12.797 47.1285,19.199 73.7965,19.199 20.801,0 40.203,-3.742 58.2,-11.199 12.636,-5.25 24.121,-11.942 34.457,-20.071 7.097,-5.582 7.531,-16.242 1.203,-22.679 v 0 c -5.532,-5.641 -14.371,-6.082 -20.532,-1.133 -8.21,6.582 -17.316,12.012 -27.324,16.281 -14.402,6.129 -29.742,9.199 -46.004,9.199 -20.8,0 -40,-5 -57.6012,-15 -17.5977,-10 -31.5313,-23.738 -41.7969,-41.199 -10.2695,-17.469 -15.3984,-36.738 -15.3984,-57.801 0,-21.058 5.1289,-40.339 15.3984,-57.8004 10.2656,-17.4688 24.1992,-31.1992 41.7969,-41.1992 17.6012,-10 36.8012,-15 57.6012,-15 17.332,0 33.664,3.5312 49,10.6015 10.883,5.0079 20.594,11.3399 29.133,18.9805 5.949,5.3281 14.848,5.5391 20.801,0.207 v 0 c 6.844,-6.1289 6.996,-17 0.086,-23.0703 C 234.523,26.7695 222.184,18.9297 208.406,12.8086 189.203,4.26953 168.531,0.0117188 146.402,0.0117188 119.734,0.0117188 95.1328,6.41016 72.6055,19.2109"
         style="fill:#171717;fill-opacity:1;fill-rule:nonzero;stroke:none"
         id="path26" /><path
         d="M 765.797,13.8008 C 749.398,23.0117 736.461,35.8086 727,52.2109 c -9.469,16.3985 -14.199,35 -14.199,55.8011 v 159.59 c 0,8.839 7.156,16.007 15.996,16.007 v 0 c 8.836,0 16,-7.168 16,-16.007 V 105.609 c 0,-14.6676 3.262,-27.7379 9.801,-39.1988 6.531,-11.4688 15.601,-20.4688 27.203,-27 11.601,-6.5391 24.597,-9.8008 38.996,-9.8008 14.402,0 27.402,3.2617 39,9.8008 11.601,6.5312 20.664,15.5312 27.203,27 6.527,11.4609 9.801,24.5312 9.801,39.1988 v 161.993 c 0,8.839 7.16,16.007 16,16.007 v 0 c 8.832,0 16,-7.168 16,-16.007 v -159.59 c 0,-20.8011 -4.742,-39.4026 -14.203,-55.8011 -9.469,-16.4023 -22.399,-29.1992 -38.801,-38.4101 -16.399,-9.19142 -34.734,-13.7890812 -55,-13.7890812 -20.266,0 -38.598,4.5976612 -55,13.7890812"
         style="fill:#171717;fill-opacity:1;fill-rule:nonzero;stroke:none"
         id="path28" /><path
         d="m 1423.59,33.2109 h 76.4 c 11.46,0 21.53,2.0586 30.2,6.1993 8.66,4.1289 15.4,9.9296 20.2,17.3984 4.8,7.4609 7.21,15.8633 7.21,25.2031 0,9.3281 -2.41,17.7969 -7.21,25.3983 -4.8,7.602 -11.54,13.469 -20.2,17.602 -8.67,4.129 -18.74,6.199 -30.2,6.199 h -72 v 29.598 h 72 c 15.2,0 27.46,4.332 36.8,12.992 9.33,8.679 14,19.937 14,33.808 0,13.602 -4.67,24.731 -14,33.403 -9.34,8.66 -21.6,13 -36.8,13 h -77.2 l 14.81,14.789 V 18.8008 Z m -18,236.2191 c 0,7.832 6.35,14.179 14.17,14.179 h 84.23 c 15.73,0 29.53,-3.07 41.4,-9.199 11.86,-6.14 21.06,-14.539 27.6,-25.199 6.53,-10.672 9.8,-22.93 9.8,-36.801 0,-13.871 -3.34,-26.199 -10,-37 -6.67,-10.801 -16.2,-19.269 -28.6,-25.398 -12.4,-6.141 -27,-9.203 -43.8,-9.203 v 15.203 c 17.6,0 33.13,-3.274 46.6,-9.801 13.47,-6.539 23.87,-15.539 31.2,-27 7.33,-11.473 11,-24.5391 11,-39.1993 0,-14.6719 -3.67,-27.8008 -11,-39.4023 -7.33,-11.5977 -17.73,-20.668 -31.2,-27.1992 -13.47,-6.53911 -29,-9.80082 -46.6,-9.80082 h -80.63 c -7.82,0 -14.17,6.33984 -14.17,14.17192 V 269.43"
         style="fill:#171717;fill-opacity:1;fill-rule:nonzero;stroke:none"
         id="path30" /><path
         d="m 2073.19,160.41 h 122 c 8.18,0 14.8,-6.629 14.8,-14.808 v 0 c 0,-8.172 -6.62,-14.793 -14.8,-14.793 h -122 z m -3.43,123.199 h 136.23 c 8.18,0 14.8,-6.629 14.8,-14.808 v 0 c 0,-8.172 -6.62,-14.789 -14.8,-14.789 h -133.2 l 14.81,14.789 V 18.0117 l -14.81,15.1992 h 133.2 c 8.18,0 14.8,-6.6328 14.8,-14.8125 v 0 c 0,-8.1679 -6.62,-14.78902 -14.8,-14.78902 h -136.23 c -7.82,0 -14.17,6.33984 -14.17,14.17192 V 269.43 c 0,7.832 6.35,14.179 14.17,14.179"
         style="fill:#171717;fill-opacity:1;fill-rule:nonzero;stroke:none"
         id="path32" /></g></g></svg>
