<?xml version="1.0" encoding="UTF-8"?>
<svg width="30.6142pt" version="1.1" xmlns="http://www.w3.org/2000/svg" height="30.6142pt" viewBox="0 0 30.6142 30.6142" xmlns:xlink="http://www.w3.org/1999/xlink">
 <defs/>
 <g id="Hintergrund">
  <path style="fill:#535555; fill-rule:evenodd;stroke:none;" d="M6.15319 3.09684 L0 6.17344 L0 13.1565 C0 19.9575 0.0101204 20.1598 0.212528 20.767 C0.323853 21.1111 0.546501 21.5767 0.708426 21.7994 C1.35613 22.7506 1.71035 22.9733 6.9021 25.5742 L11.8915 28.0841 L13.0554 28.0841 C13.9864 28.0841 14.3709 28.0335 14.9782 27.8412 C15.8181 27.5781 27.5781 21.5564 28.3371 20.9998 C29.258 20.3217 30.0171 19.33 30.3915 18.3382 C30.5737 17.8625 30.6141 17.5387 30.6141 16.4861 L30.6141 15.2109 L30.2094 14.4115 C29.9158 13.8346 29.6629 13.5107 29.2985 13.2071 L28.7926 12.8023 L28.9241 12.2963 C29.1366 11.4866 29.0354 10.262 28.7115 9.58401 C28.3169 8.78449 27.8007 8.37964 26.1409 7.55992 L24.6634 6.83129 L23.7223 6.83129 L22.781 6.83129 L17.4374 9.51313 L12.0938 12.195 L12.0635 18.4393 C12.0433 24.5723 12.0331 24.6937 11.8409 24.7949 C11.6688 24.886 11.0008 24.5723 7.51945 22.8013 C4.03804 21.0301 3.35997 20.6456 3.16768 20.3521 L2.93491 20.0081 L2.93491 13.8751 L2.93491 7.74208 L8.90591 4.75658 C12.3569 3.03612 14.8972 1.70022 14.9276 1.60914 C14.958 1.51806 14.958 1.37637 14.9276 1.30554 C14.8668 1.15372 12.6404 0 12.4177 0.0101204 C12.3569 0.0101204 9.5334 1.39662 6.15319 3.09684 Z M13.0554 1.20433 L13.612 1.49782 L8.07606 4.26068 L2.55034 7.02358 L2.02408 6.78068 C1.74071 6.6491 1.4877 6.49729 1.45734 6.45681 C1.40673 6.38597 12.195 0.920955 12.3975 0.920955 C12.4582 0.920955 12.7516 1.05252 13.0554 1.20433 Z M1.51806 7.48911 L2.12528 7.79269 L2.12528 13.9459 L2.12528 20.0991 L2.38841 20.6355 C2.5807 21.02 2.79322 21.263 3.1272 21.4755 C3.89635 21.9714 11.4259 25.7058 11.6486 25.7058 C12.0129 25.7058 12.5493 25.392 12.7011 25.0884 C12.8327 24.8455 12.8529 23.8841 12.8529 18.9859 L12.8529 13.1565 L13.5107 13.4804 L14.1685 13.8143 L14.1483 20.0586 C14.1179 26.1814 14.1179 26.3029 13.9054 26.5761 C13.5815 27.0214 13.2172 27.2441 12.7314 27.2947 C12.3165 27.3453 12.0028 27.2036 7.29682 24.8557 C1.82167 22.113 1.66986 22.0119 1.13349 20.8683 L0.860234 20.2914 L0.829869 13.7334 C0.819755 10.1305 0.829869 7.18547 0.860234 7.18547 C0.890591 7.18547 1.18409 7.32716 1.51806 7.48911 Z M24.5824 7.70161 C24.7545 7.76235 24.8961 7.8433 24.886 7.87363 C24.886 7.91417 22.5584 9.0982 19.7246 10.505 L14.5734 13.0554 L13.9864 12.7618 L13.4095 12.4683 L18.2977 10.0293 C22.8316 7.76235 23.2263 7.59026 23.7223 7.59026 C24.0157 7.59026 24.4003 7.64087 24.5824 7.70161 Z M26.6267 8.75416 C27.2137 8.96665 27.8817 9.63461 28.0841 10.2115 C28.2865 10.8187 28.2663 11.6688 28.0335 12.3469 C27.7602 13.1262 27.7805 13.2071 28.2663 13.4905 C28.8532 13.8447 29.2985 14.3305 29.5718 14.9276 C29.7742 15.3627 29.8046 15.5955 29.8046 16.5468 C29.8046 17.5893 29.7843 17.7005 29.4807 18.3482 C29.1366 19.0668 28.3574 19.9777 27.6793 20.4432 C27.0417 20.8784 15.2615 26.9405 14.796 27.0721 L14.5632 27.1429 L14.7454 26.7987 C14.9175 26.485 14.9276 26.0398 14.958 20.1396 L14.9883 13.8042 L20.2003 11.2033 C25.7969 8.41004 25.7261 8.44038 26.6267 8.75416 Z" transform="translate(0, 1.26504)"/>
  <path style="fill:#535555; fill-rule:evenodd;stroke:#535555; stroke-width:1; stroke-linecap:butt; stroke-linejoin:miter; stroke-dasharray:none;" d="M0 0 L11.0761 0 L11.0761 9.375 L0 9.375 L0 0 Z" transform="translate(15.2803, 15.374) rotate(-27)"/>
  <path style="fill:#535555; fill-rule:evenodd;stroke:#535555; stroke-width:1; stroke-linecap:butt; stroke-linejoin:miter; stroke-dasharray:none;" d="M0 0 L0.463521 0 L0.463521 12.5703 L0 12.5703 L0 0 Z" transform="translate(14.9495, 15.374)"/>
  <path style="fill:#535555; fill-rule:evenodd;stroke:#535555; stroke-width:1; stroke-linecap:butt; stroke-linejoin:miter; stroke-dasharray:none;" d="M0 0 L0.463521 0 L0.463521 12.5703 L0 12.5703 L0 0 Z" transform="translate(14.9495, 15.374)"/>
  <path style="fill:#535555; fill-rule:evenodd;stroke:#535555; stroke-width:1; stroke-linecap:butt; stroke-linejoin:miter; stroke-dasharray:none;" d="M0 0 L0.463521 0 L0.463521 12.0469 L0 12.0469 L0 0 Z" transform="translate(15.9495, 15.3584)"/>
  <path style="fill:#535555; fill-rule:evenodd;stroke:#535555; stroke-width:1; stroke-linecap:butt; stroke-linejoin:miter; stroke-dasharray:none;" d="M0 0 L0.463521 0 L0.463521 12.0469 L0 12.0469 L0 0 Z" transform="translate(15.9495, 15.3584)"/>
  <path style="fill:#535555; fill-rule:evenodd;stroke:#535555; stroke-width:1; stroke-linecap:butt; stroke-linejoin:miter; stroke-dasharray:none;" d="M0 0 L0.463521 0 L0.463521 11.5781 L0 11.5781 L0 0 Z" transform="translate(16.9495, 15.3584)"/>
  <path style="fill:#535555; fill-rule:evenodd;stroke:#535555; stroke-width:1; stroke-linecap:butt; stroke-linejoin:miter; stroke-dasharray:none;" d="M0 0 L10.9093 0 L10.9093 5.98438 L0 5.98438 L0 0 Z" transform="translate(15.4359, 21.436) rotate(-27)"/>
  <path style="fill:#535555; fill-rule:evenodd;stroke:#535555; stroke-width:1; stroke-linecap:butt; stroke-linejoin:miter; stroke-dasharray:none;" d="M0 0 L2.85191 0 L2.85191 0.721358 L0 0.721358 L0 0 Z" transform="translate(26.5188, 20.1974) rotate(-27)"/>
  <path style="fill:#535555; fill-rule:evenodd;stroke:#535555; stroke-width:1; stroke-linecap:butt; stroke-linejoin:miter; stroke-dasharray:none;" d="M0 0 L2.37193 0 L2.37193 0.495424 L0 0.495424 L0 0 Z" transform="translate(26.5188, 21.1974) rotate(-27)"/>
  <path style="fill:#535555; fill-rule:evenodd;stroke:#535555; stroke-width:1; stroke-linecap:butt; stroke-linejoin:miter; stroke-dasharray:none;" d="M0 0 L2.23609 0 L2.23609 0.899692 L0 0.899692 L0 0 Z" transform="translate(25.5188, 12.1974) rotate(-27)"/>
  <path style="fill:#535555; fill-rule:evenodd;stroke:#535555; stroke-width:1; stroke-linecap:butt; stroke-linejoin:miter; stroke-dasharray:none;" d="M0 0 L2.85191 0 L2.85191 1.02898 L0 1.02898 L0 0 Z" transform="translate(24.5188, 11.622) rotate(-27)"/>
  <path style="fill:#535555; fill-rule:evenodd;stroke:#535555; stroke-width:1; stroke-linecap:butt; stroke-linejoin:miter; stroke-dasharray:none;" d="M0 0 L2.53711 0 L2.53711 0.547661 L0 0.547661 L0 0 Z" transform="translate(23.7373, 11.0509) rotate(-27)"/>
  <path style="fill:#535555; fill-rule:evenodd;stroke:#535555; stroke-width:1; stroke-linecap:butt; stroke-linejoin:miter; stroke-dasharray:none;" d="M0 0 L1.62863 0 L1.62863 0.899692 L0 0.899692 L0 0 Z" transform="translate(26.5188, 12.1974)"/>
  <path style="fill:#535555; fill-rule:evenodd;stroke:#535555; stroke-width:1; stroke-linecap:butt; stroke-linejoin:miter; stroke-dasharray:none;" d="M0 0 L1.62863 0 L1.62863 0.899692 L0 0.899692 L0 0 Z" transform="translate(26.5188, 12.1974)"/>
  <path style="fill:#535555; fill-rule:evenodd;stroke:#535555; stroke-width:1; stroke-linecap:butt; stroke-linejoin:miter; stroke-dasharray:none;" d="M0 0 L1.1038 0 L1.1038 5.15203 L0 5.15203 L0 0 Z" transform="translate(26.5188, 14.1974) rotate(-27)"/>
  <path style="fill:#535555; fill-rule:evenodd;stroke:#535555; stroke-width:1; stroke-linecap:butt; stroke-linejoin:miter; stroke-dasharray:none;" d="M0 0 L0.228639 0 L0.228639 5.15203 L0 5.15203 L0 0 Z" transform="translate(26.5188, 12.1974) rotate(-27)"/>
  <path style="fill:#535555; fill-rule:evenodd;stroke:#535555; stroke-width:1; stroke-linecap:butt; stroke-linejoin:miter; stroke-dasharray:none;" d="M0 0 L-0.0543408 0 L-0.0543408 2.54298 L0 2.54298 L0 0 Z" transform="translate(28.7033, 15.5221) rotate(-27)"/>
 </g>
</svg>
