<?xml version="1.0" encoding="UTF-8"?>
<svg width="209.764pt" version="1.1" xmlns="http://www.w3.org/2000/svg" height="79.3701pt" viewBox="0 0 209.764 79.3701" xmlns:xlink="http://www.w3.org/1999/xlink">
 <defs>
  <clipPath id="Clip0">
   <path d="M0 0 L208.205 0 L208.205 76.5154 L0 76.5154 L0 0 Z" transform="translate(0.55118, 1.13211)"/>
  </clipPath>
  <clipPath id="Clip1">
   <path d="M0 0 L208.205 0 L208.205 76.5154 L0 76.5154 L0 0 Z" transform="translate(0.55118, 1.13211)"/>
  </clipPath>
 </defs>
 <g id="Hintergrund"/>
 <g id="Neue Ebene 1">
  <g id="Gruppe12" clip-path="url(#Clip0)">
   <g id="Gruppe11" clip-path="url(#Clip1)">
    <path style="fill:#000000; fill-rule:evenodd;stroke:none;" d="M16.7644 8.43738 L0 16.8196 L0 35.8452 C0 54.3743 0.0275732 54.9256 0.579036 56.58 C0.882339 57.5174 1.48895 58.786 1.93012 59.3927 C3.6948 61.9843 4.65986 62.591 18.8049 69.6773 L32.3985 76.5155 L35.5695 76.5155 C38.1059 76.5155 39.1537 76.3776 40.8084 75.8536 C43.0968 75.1367 75.1366 58.7309 77.2048 57.2142 C79.7137 55.3669 81.7819 52.6647 82.802 49.9626 C83.2985 48.6668 83.4087 47.7841 83.4087 44.9166 L83.4087 41.4424 L82.3056 39.2643 C81.5062 37.6925 80.8168 36.8102 79.8242 35.983 L78.4454 34.8798 L78.8041 33.5013 C79.3829 31.2954 79.1073 27.9591 78.2249 26.1118 C77.1497 23.9334 75.7433 22.8305 71.2214 20.5971 L67.1955 18.6118 L64.6315 18.6118 L62.0669 18.6118 L47.5085 25.9186 L32.9497 33.2257 L32.867 50.2382 C32.8119 66.9475 32.7843 67.2783 32.2603 67.5543 C31.7918 67.8023 29.9719 66.9475 20.4868 62.1224 C11.0017 57.2969 9.15427 56.2492 8.63038 55.4496 L7.9962 54.5121 L7.9962 37.8028 L7.9962 21.0935 L24.2642 12.9594 C33.6667 8.27194 40.5876 4.63227 40.6703 4.38413 C40.753 4.13597 40.753 3.74993 40.6703 3.55695 C40.5049 3.14335 34.4388 0 33.8321 0.0275732 C33.6667 0.0275732 25.9739 3.80508 16.7644 8.43738 Z M35.5695 3.28119 L37.0858 4.08084 L22.0033 11.6083 L6.94842 19.1357 L5.5146 18.474 C4.74258 18.1156 4.05324 17.7019 3.97052 17.5917 C3.83264 17.3987 33.2257 2.50915 33.7772 2.50915 C33.9423 2.50915 34.742 2.8676 35.5695 3.28119 Z M4.13597 20.4041 L5.79036 21.2313 L5.79036 37.9957 L5.79036 54.7602 L6.50725 56.2217 C7.03115 57.2694 7.61016 57.9312 8.5201 58.51 C10.6156 59.8613 31.1301 70.0356 31.7366 70.0356 C32.7292 70.0356 34.1907 69.1808 34.6045 68.3536 C34.9628 67.6921 35.0179 65.0726 35.0179 51.7273 L35.0179 35.8452 L36.8101 36.7275 L38.6024 37.6374 L38.5473 54.6499 C38.4646 71.3317 38.4646 71.6628 37.8854 72.407 C37.0031 73.6201 36.0105 74.2268 34.6868 74.3646 C33.5564 74.5027 32.7017 74.1165 19.8802 67.7196 C4.96318 60.2472 4.54957 59.9715 3.08819 56.8559 L2.34371 55.2842 L2.26099 37.4166 C2.23343 27.6006 2.26099 19.5769 2.34371 19.5769 C2.42642 19.5769 3.22603 19.963 4.13597 20.4041 Z M66.975 20.9832 C67.4439 21.1487 67.8298 21.3692 67.8023 21.4519 C67.8023 21.5622 61.4605 24.7883 53.74 28.6209 L39.7052 35.5695 L38.1059 34.7696 L36.5342 33.9702 L49.8523 27.325 C62.205 21.1487 63.2803 20.6798 64.6315 20.6798 C65.4309 20.6798 66.4786 20.8176 66.975 20.9832 Z M72.5447 23.8508 C74.144 24.4298 75.9641 26.2497 76.5154 27.8214 C77.0667 29.4757 77.0118 31.7918 76.3776 33.6392 C75.633 35.7625 75.6882 35.983 77.0118 36.7551 C78.6108 37.7201 79.8242 39.0434 80.5688 40.6703 C81.12 41.8562 81.2027 42.4901 81.2027 45.082 C81.2027 47.9223 81.1476 48.2255 80.3204 49.9898 C79.3829 51.9478 77.2599 54.4294 75.4125 55.698 C73.6754 56.8835 41.5802 73.3996 40.3119 73.7582 L39.6777 73.9511 L40.1741 73.0137 C40.6427 72.1589 40.6703 70.9458 40.753 54.8707 L40.8356 37.6095 L55.0357 30.5235 C70.2839 22.9133 70.0909 22.996 72.5447 23.8508 Z" transform="translate(67.9951, 1.13211)"/>
    <path style="fill:#000000; fill-rule:evenodd;stroke:none;" d="M14.917 0.303303 C11.8289 0.937485 8.27194 3.00548 6.20394 5.29404 C0 12.2425 1.54409 23.52 9.34729 28.4554 C12.1322 30.1927 13.952 30.7717 17.2608 30.9096 C20.7902 31.0749 23.1063 30.6061 25.8636 29.1447 C29.0897 27.4629 30.0271 26.1668 29.007 24.7883 C28.4278 23.9887 27.1871 24.154 25.7809 25.2294 C18.281 30.9646 7.49989 26.6908 5.92824 17.3987 C5.07344 12.3252 7.96862 6.78299 12.6285 4.57714 C16.8472 2.5643 20.8453 2.81246 25.1191 5.37676 C26.8011 6.39698 27.0216 6.47967 27.7661 6.17638 C28.8415 5.73521 29.0897 4.71499 28.3728 3.74993 C27.6006 2.72974 24.3472 1.02021 22.1688 0.523888 C20.4868 0.137866 16.2406 0 14.917 0.303303 Z" transform="translate(0.55118, 23.9075)"/>
    <path style="fill:#000000; fill-rule:evenodd;stroke:none;" d="M0.468743 0.330876 C0 0.799621 0 30.0824 0.468743 30.5511 C0.7169 30.7993 3.00548 30.8819 9.09912 30.8819 C16.8196 30.8819 17.4538 30.8543 17.8674 30.3856 C18.4464 29.7513 18.474 28.9518 17.9501 28.2349 C17.5917 27.7385 17.1229 27.7109 10.5054 27.6282 L3.44664 27.5456 L3.50179 22.2515 L3.58452 16.9575 L10.0642 16.8196 L16.5163 16.6817 L16.9299 15.9373 C17.3159 15.2479 17.3159 15.1376 16.792 14.4208 L16.213 13.6487 L9.81602 13.566 L3.44664 13.5108 L3.44664 8.40979 L3.44664 3.33635 L10.5054 3.25363 C17.1229 3.17091 17.5917 3.14335 17.9501 2.64702 C18.474 1.90255 18.4464 0.992633 17.8398 0.468742 C17.3987 0.0551461 16.3784 0 9.07156 0 C3.00548 0 0.7169 0.0827194 0.468743 0.330876 Z" transform="translate(190.282, 24.0178)"/>
   </g>
  </g>
 </g>
</svg>
