<svg xmlns="http://www.w3.org/2000/svg" xmlns:xlink="http://www.w3.org/1999/xlink" width="143" height="114" viewBox="0 0 143 114">
    <defs>
        <path id="a" d="M0 .226h91.075v104.166H0z"/>
        <path id="c" d="M.242.003h129.674v54.96H.242z"/>
    </defs>
    <g fill="none" fill-rule="evenodd">
        <path fill="#FF4B4B" d="M89.687 104.214h-73.31L23.578.048h70.228z"/>
        <path fill="#1D1D1B" d="M26.01 89.573c-1.096 0-1.6.84-1.6 2.488-.019 1.648.495 2.487 1.6 2.487 1.094 0 1.598-.839 1.598-2.487 0-1.649-.504-2.488-1.598-2.488M43.772 89.573c-1.095 0-1.599.84-1.599 2.488-.019 1.648.495 2.487 1.6 2.487 1.094 0 1.598-.839 1.598-2.487 0-1.649-.504-2.488-1.599-2.488M26.067 101.34h-1.065v2.009h1.065c1.008 0 1.29-.38 1.29-1.005 0-.624-.282-1.005-1.29-1.005M54.441 78.724c0-.946-.64-1.229-1.637-1.229h-1.395v2.517h1.404c1.066 0 1.628-.4 1.628-1.288M17.889 78.724c0-.946-.64-1.229-1.638-1.229h-1.395v2.517h1.405c1.066 0 1.628-.4 1.628-1.288M53.279 89.632h-1.22v1.99h.987c1.047 0 1.366-.332 1.366-.995 0-.664-.397-.995-1.133-.995M25.758 83.309c1.23 0 1.957-.956 1.957-2.956s-.727-2.955-1.957-2.955-1.958.956-1.958 2.955c0 2 .727 2.956 1.958 2.956"/>
        <g transform="translate(0 9.512)">
            <mask id="b" fill="#fff">
                <use xlink:href="#a"/>
            </mask>
            <path fill="#1D1D1B" d="M76.003 97.875c-1.143 0-2.219-.644-2.616-1.668l1.105-.488c.32.663.736 1.103 1.52 1.103.67 0 1.183-.254 1.183-.937 0-1.385-3.604-1.112-3.604-3.278 0-1.258 1.046-1.97 2.257-1.97 1.124 0 2.054.566 2.47 1.59l-1.22.38c-.203-.546-.62-.917-1.25-.917-.581 0-.998.235-.998.78 0 1.21 3.605.957 3.605 3.24 0 1.443-.902 2.165-2.452 2.165zm-6.173-.098h-4.38v-7.042h1.338v5.91h3.042v1.132zM60.527 74.46c-.784 0-1.55-.342-2.015-.966l.552-.42c.33.478.814.78 1.444.78.755 0 1.085-.409 1.085-.838 0-1.287-2.984-.605-2.926-2.458.029-.878.697-1.376 1.666-1.366.66.01 1.386.37 1.725.888l-.484.43c-.388-.479-.756-.713-1.299-.713-.59 0-.91.302-.91.751 0 1.102 2.925.537 2.925 2.43 0 .984-.852 1.482-1.763 1.482zm-.242 23.317l-.388-1.522h-2.209l-.416 1.522h-1.328l2.015-7.052h1.667l1.986 7.052h-1.327zM53.21 83.202h-1.153v2.868h-1.337v-7.043h2.79c1.59 0 2.229.926 2.238 2.087.01.869-.426 1.57-1.278 1.815l1.54 3.14h-1.482l-1.318-2.867zm-2.636 14.575h1.337v-7.042h-1.337v7.042zm-6.803-11.61c-1.908 0-2.935-1.316-2.935-3.619 0-2.302 1.027-3.619 2.935-3.619 1.909 0 2.936 1.317 2.936 3.62 0 2.302-1.027 3.618-2.936 3.618zm.087 11.708c-1.782 0-2.81-1.317-2.81-3.62 0-2.301 1.028-3.618 2.81-3.618 1.338 0 2.113.605 2.442 1.853l-1.211.293c-.194-.595-.61-1.015-1.27-1.015-.89 0-1.433.84-1.433 2.488-.02 1.648.465 2.487 1.472 2.487.601 0 .97-.214 1.367-1.043l1.24.331c-.417 1.22-1.327 1.844-2.607 1.844zm-6.425-.098h-4.738v-7.042h4.631v1.13h-3.294v1.679h2.394v1.131h-2.394v1.97h3.401v1.132zm-5.038-18.76h5v1.131h-1.832v5.922h-1.337v-5.922h-1.831v-1.13zm2.17-11.795c1.182 0 2.093.566 2.52 2.068l-.737.146c-.349-1.122-.93-1.55-1.744-1.55-1.027 0-1.996.702-1.996 2.955s.97 2.955 1.996 2.955c1.143 0 1.676-.702 1.676-1.56v-.595h-1.58v-.664h2.355v3.385h-.639v-.644h-.02c-.358.498-1.056.742-1.83.742-1.59 0-2.733-1.151-2.733-3.62 0-2.467 1.143-3.618 2.732-3.618zM26.01 86.167c-1.91 0-2.936-1.316-2.936-3.619 0-2.302 1.027-3.619 2.936-3.619 1.908 0 2.935 1.317 2.935 3.62 0 2.302-1.027 3.618-2.935 3.618zm.212 8.762h-1.22v2.848h-1.337v-7.042h2.557c1.512 0 2.471.633 2.471 2.097 0 1.463-.959 2.097-2.47 2.097zm-.464-27.707c1.714 0 2.732 1.268 2.732 3.619 0 2.35-1.018 3.619-2.732 3.619-1.716 0-2.733-1.268-2.733-3.62 0-2.35 1.017-3.618 2.733-3.618zm-5.36 18.848h-1.163v-5.54h-.02l-1.569 5.54H16.63l-1.55-5.54h-.02v5.54h-1.162v-7.043h1.88l1.346 4.916h.02l1.356-4.916h1.899v7.043zm-3.304 11.805c-1.143 0-2.219-.644-2.616-1.668l1.104-.488c.32.663.737 1.103 1.522 1.103.668 0 1.182-.254 1.182-.937 0-1.385-3.604-1.112-3.604-3.278 0-1.258 1.046-1.97 2.257-1.97 1.124 0 2.054.566 2.47 1.59l-1.22.38c-.204-.546-.62-.917-1.25-.917-.581 0-.998.235-.998.78 0 1.21 3.604.957 3.604 3.24 0 1.443-.9 2.165-2.45 2.165zm-3.013-30.556h2.248c1.511 0 2.335.683 2.335 1.854 0 .995-.572 1.56-1.396 1.834l1.483 3.355h-.843l-1.415-3.2h-1.637v3.2h-.775V67.32zm27.754 0h4.195v.664h-3.42v2.36h2.431v.664H42.61v2.692h3.613v.663h-4.388V67.32zm8.798 0h2.248c1.512 0 2.335.683 2.335 1.854 0 .995-.571 1.56-1.395 1.834l1.483 3.355h-.843l-1.415-3.2h-1.637v3.2h-.776V67.32zm6.27 2.634h.601V67.32h-.6v2.634zM8.47.226L0 104.392h86.23L91.075.226H8.47z" mask="url(#b)"/>
        </g>
        <path fill="#1D1D1B" d="M58.802 101.593l-.823 3.063h1.627l-.784-3.063z"/>
        <g>
            <g transform="translate(13 14)">
                <mask id="d" fill="#fff">
                    <use xlink:href="#c"/>
                </mask>
                <path fill="#FF4B4B" d="M4.815 37.644c-1.458-1.973-3.28-3.823-4.009-6.66-.729-2.836-1.093-4.932 1.094-9.742C4.086 16.432 17.937 2.868 34.339.525S55.6 4.1 58.273 10.884l.243 1.664s.468.535 1.276-.185c9.01-8.015 13.871-8.837 18.285-10.482 4.414-1.644 1.448 5.58.932 7.03-.517 1.448 1.225.647 2.014.277.79-.37 9.122-5.95 14.003-7.122 1.448-.347 2.284.765 1.734 2.227-.283.754-.784 1.567-1.174 2.576-.689 1.781 1.323 1.178 1.323 1.178s14.952-9.753 31.467 2.652c3.038 2.28 1.154 4.069-1.944 6.597-2.396 1.955-8.565 5.734-8.565 5.734s-2.309 1.604-.486 3.268c1.822 1.665 2.248 2.96 2.248 2.96s5.305 5.96-7.29 16.956c-9.466 8.264-22.072 7.687-28.795 5.673-2.263-.678-3.401-.015-4.13.062-.73.077-13.85 0-13.85 0s-.973-.23-.973-1.234c0-.955-.091-2.173-.091-2.173s-.273-.91-.76-.108c-.485.802-1.518 3.237-3.022 3.592-1.422.335-8.307.23-9.31-.077-1.001-.309-1.077-.309-1.882-.679-.674-.31-1.55 2.066-2.673 3.145-1.124 1.079-.972.493-3.16-1.11-2.186-1.603-17.08-10.435-18.83-10.667-1.626-.216-1.945.185-1.945.185l-4.191 7.522s-.547 1.049-1.701 1.172-14.944.247-14.944.247-.996-.404-.944-.78c.052-.375.602-.578.883-.824.28-.245 6.946-7.873 10.449-14.428 1.559-2.918-1.701-.143-3.26 1.686-1.496 1.754-2.937 2.199-4.395.226z" mask="url(#d)"/>
            </g>
            <path fill="#FEFEFE" d="M25.56 41.624c-.172.205-4.777 6.562-6.358 4.296-2.794-4.008-.345-8.173.75-9.66 5.43-7.38 12.803-12.994 21.322-15.929 21.95-7.564 32.84 6.555 16.2 22.28-2.35 2.22-5.832 3.781-8.047 5.338-.755.53 1.416 2.017 4.783 3.492.676.297 1.045.605 2.323-1.1 3.912-5.218 11.425-13.859 13.322-15.818.39-.404 15.028-14.693 16.378-11.378 1.068 2.613-6.263 14.474-5.808 17.4 2.04-1.753 18.932-20.778 21.354-16.761.99 1.642-2.331 5.082-4.828 11.56-2.328 6.038-5.109 14.473-5.054 18.776.005.353 6.768-5.124 9.646-4.336 1.196 1.378-1.778 2.757-1.694 4.98.724 1.092 9.222 2.163 14.24 1.256 3.841-.694 11.342-5.343 2.917-9.71-3.176-1.646-12.555-1.185-14.903-6.741-1.024-2.422-.147-6.85 3.726-10.606 10.853-10.523 24.571-4.743 27.863-3.37 4.535 1.89.972 3.946-1.134 4.85-1.533.658-2.346 2.43-3.433 1.946-.565-.348-.615-1.148-1.262-1.74-2.82-2.657-6.531-6.104-12.382-3.07-1.796 1.055-3.116 2.26-3.416 3.11-1.67 4.737 3.576 5.31 9.267 7.87 4.521 2.035 8.763 8.928 6.042 13.342-2.665 4.323-12.736 13.506-33.01 9.567-1.078-.394-2.335-1.645-3.277-1.757-.647-.18-1.126.805-1.96 1.134-1.553-.033-3.629.147-5.498-.033-.684-1.514 1.118-8.892 2.396-12.899 1.736-5.439 3.6-7.942 2.971-9.12-3.806 1.109-5.33 5.272-9.248 10.292-1.452 1.86-5.549 10.667-8.748 11.777-4.738 1.356-4.203-2.435-2.43-7.153 1.782-6.33 4.255-13.854 4.212-14.88-2.254.208-6.577 5.573-8.135 7.294-3.72 4.104-4.582 5.284-5.635 7.75-.458 1.074 2.336.871 2.754 2.878.481 2.309-2.43 3.946-4.536 5.837-1.18 1.061-2.95-1.162-3.887-1.644-5.913-3.042-15.936-9.794-18.61-8.745-2.974 1.166-4.525 9.34-9.82 8.252-2.902-.597 4.332-8.568 4.63-10.345 1.874-2.604 13.551-21.58 14.08-23.424.282-.984-.912-1.604-3.118-.617-4.82 2.158-14.944 7.91-14.944 15.559"/>
            <path fill="#FEFEFE" d="M30.633 37.863c.365-.617 2.223-2.65 2.886-2.775 3.098-.586-3.227 7.122-3.18 4.316 0 0-.216-.678.294-1.541M99.592 43.762c0 .738-.624 1.315-1.093 1.315-.47 0-.85-.598-.85-1.336 0-.738.38-1.336.85-1.336s1.093.619 1.093 1.357M118.586 33.115l6.317 2.425s1.66.74.608-.945c-1.053-1.685-3.564-4.07-5.589-4.07-2.025 0-3.483 1.48-1.336 2.59M109.838 48.859l4.171.945s1.62.781.203 1.727c-1.418.945-4.982.78-5.144.863-.161.082-1.215-.124-1.093-1.274.121-1.151-.04-2.508 1.863-2.261"/>
            <path fill="#E20714" d="M50.508 26.538L38.52 47.256s-.729 1.85 1.013.534c1.741-1.316 2.794-2.014 3.604-2.096.81-.083.446.205 1.093-.042.649-.246 6.4-2.301 10.368-6.412 3.969-4.11 2.993-10.467-.324-13.195-2.349-1.932-3.766.493-3.766.493"/>
            <path fill="#FEFEFE" d="M50.63 33.074c-1.773 2.168-3.443 6.001-3.443 6.001s-.931 1.81.891.946c1.822-.863 1.69-.74 2.308-1.932.76-1.467 1.843-3.69 1.904-4.563.06-.873.111-2.62-1.66-.452"/>
        </g>
    </g>
</svg>
